<?xml version="1.0" standalone="no"?>
<!DOCTYPE svg PUBLIC "-//W3C//DTD SVG 20010904//EN"
 "http://www.w3.org/TR/2001/REC-SVG-20010904/DTD/svg10.dtd">
<svg version="1.0" xmlns="http://www.w3.org/2000/svg"
 width="900.000000pt" height="900.000000pt" viewBox="0 0 900.000000 900.000000"
 preserveAspectRatio="xMidYMid meet">

<g transform="translate(0.000000,900.000000) scale(0.100000,-0.100000)"
fill="#000000" stroke="none">
<path d="M1940 8903 c-91 -109 -225 -304 -271 -394 -16 -33 -46 -85 -66 -116
-84 -132 -188 -387 -301 -738 -120 -373 -185 -636 -163 -658 17 -17 13 -48 -8
-54 -10 -3 -21 -17 -24 -31 -4 -15 -22 -94 -40 -177 -19 -82 -42 -195 -52
-250 -11 -65 -24 -111 -38 -131 -99 -141 -98 -139 -113 -235 -14 -89 -19 -99
-92 -214 -88 -140 -158 -275 -243 -476 -34 -79 -88 -207 -121 -284 -38 -89
-76 -202 -104 -310 -24 -93 -55 -206 -68 -250 -48 -160 -60 -262 -60 -515 -1
-342 -3 -338 212 -620 31 -41 73 -92 92 -115 20 -22 53 -62 75 -89 103 -130
374 -411 486 -506 68 -58 172 -146 231 -197 59 -50 127 -105 151 -122 63 -43
165 -159 178 -201 22 -74 37 -191 25 -195 -217 -74 -398 -179 -473 -273 -20
-26 -38 -48 -39 -50 0 -1 -45 7 -99 18 -206 42 -485 62 -525 37 -17 -10 -22
-9 -30 3 -8 13 -28 12 -162 -3 -84 -9 -186 -22 -226 -28 l-72 -11 0 -44 c0
-24 4 -44 10 -44 6 0 6 -9 0 -25 -5 -13 -9 -156 -9 -316 0 -250 2 -294 15
-303 15 -12 10 -46 -7 -46 -5 0 -9 -30 -9 -66 0 -38 4 -63 9 -59 6 3 29 8 53
11 24 3 86 13 138 24 135 26 364 33 541 17 l146 -14 41 -45 c23 -25 62 -58 87
-73 25 -16 45 -33 45 -37 0 -15 73 -89 103 -105 16 -8 53 -22 81 -30 28 -8 89
-35 136 -58 77 -39 87 -47 102 -87 30 -76 38 -129 38 -275 l0 -143 384 0 384
0 11 50 c6 28 11 101 11 163 0 148 20 186 34 67 4 -30 14 -106 23 -167 l16
-113 33 0 33 0 -4 53 -4 52 17 -53 17 -52 147 0 148 0 -26 67 c-56 146 -77
217 -139 463 -89 356 -118 519 -113 641 3 92 6 103 47 183 48 95 134 197 190
226 21 10 75 26 122 34 46 9 116 25 154 36 39 10 121 29 184 41 135 27 131 27
399 -69 188 -68 227 -90 217 -121 -4 -13 6 -26 37 -46 24 -15 95 -66 158 -114
251 -187 389 -285 413 -294 14 -5 10 4 -13 33 -17 22 -29 40 -27 40 3 0 24
-16 47 -35 23 -19 46 -35 52 -35 9 0 64 -31 303 -172 28 -16 96 -60 152 -96
79 -52 102 -72 103 -89 0 -16 6 -23 20 -23 28 0 162 -73 234 -127 121 -92 170
-149 199 -237 9 -26 35 -68 57 -92 24 -26 40 -53 40 -68 0 -14 7 -32 16 -40
21 -22 27 -20 14 3 -5 11 -10 28 -10 37 0 28 41 -15 81 -86 l34 -59 379 0
c260 0 384 3 393 11 9 7 13 7 13 -1 0 -8 157 -11 578 -11 l577 1 -50 44 c-27
25 -56 45 -64 45 -9 0 7 20 34 44 30 26 54 41 60 36 31 -26 162 -35 480 -34
289 0 347 3 472 22 123 19 397 83 409 95 2 2 3 542 2 1200 l-3 1197 -85 -61
c-76 -55 -88 -60 -120 -54 -19 4 -172 6 -340 4 -168 -2 -368 -3 -445 -3 l-140
-1 -77 154 c-64 130 -158 348 -182 427 -4 14 7 42 36 90 23 38 52 98 65 134
13 37 28 64 35 62 6 -2 25 -13 42 -25 33 -23 433 -237 444 -237 4 0 -15 16
-42 35 -27 19 -53 35 -57 35 -5 0 -88 79 -186 176 l-178 176 3 137 c3 152 -21
412 -62 646 -8 50 -20 153 -25 230 -6 77 -15 156 -21 175 -14 50 -13 60 8 53
33 -12 75 -59 99 -113 90 -198 141 -426 144 -638 1 -78 4 -111 11 -104 6 6 11
30 13 54 1 24 4 50 8 58 3 8 11 71 18 140 11 115 10 137 -11 283 -12 87 -20
160 -18 162 2 2 78 -33 168 -79 91 -45 190 -92 221 -104 31 -11 120 -55 197
-96 139 -74 212 -109 212 -101 0 3 -19 14 -42 26 -63 31 -293 171 -365 221
-152 106 -352 251 -389 282 -40 34 -70 95 -151 306 -24 63 -24 66 -8 95 23 39
197 377 248 480 22 44 53 116 69 160 16 44 52 132 80 195 94 210 245 659 288
850 24 108 34 210 26 254 -5 26 -18 42 -59 70 -60 41 -189 99 -327 146 -242
82 -847 263 -955 285 -135 27 -386 57 -675 80 -353 28 -306 17 -386 93 -38 37
-96 95 -128 130 -32 35 -64 61 -70 59 -83 -31 -79 -31 -132 -4 -109 55 -340
148 -427 171 -51 14 -164 36 -252 48 -149 21 -194 23 -645 23 -344 0 -516 -4
-590 -13 -152 -20 -315 -49 -393 -71 l-67 -20 -58 90 c-56 89 -164 247 -219
323 -15 21 -42 62 -60 90 -17 28 -53 76 -80 107 -26 31 -86 101 -133 157 l-85
102 -362 0 -362 0 -81 -97z m184 41 c35 -13 12 -54 -30 -54 -20 0 -29 27 -14
45 14 17 21 18 44 9z m331 -24 c0 -20 -6 -26 -27 -28 -24 -3 -28 0 -28 21 0
30 9 39 35 35 14 -2 20 -10 20 -28z m315 15 c16 -20 6 -45 -19 -45 -26 0 -34
15 -21 40 13 24 23 25 40 5z m-810 -160 c16 -20 5 -45 -20 -45 -14 0 -20 7
-20 23 0 38 18 48 40 22z m320 0 c16 -20 5 -45 -20 -45 -14 0 -20 7 -20 23 0
38 18 48 40 22z m335 -20 c0 -22 -31 -33 -47 -17 -17 17 -1 44 24 40 15 -2 23
-10 23 -23z m318 2 c7 -19 -8 -41 -22 -33 -16 10 -14 46 3 46 8 0 16 -6 19
-13z m-1135 -165 c3 -18 -2 -22 -22 -22 -29 0 -31 3 -15 31 13 25 33 20 37 -9z
m327 3 c0 -13 -8 -21 -22 -23 -19 -3 -23 1 -23 23 0 22 4 26 23 23 14 -2 22
-10 22 -23z m328 18 c8 -14 -12 -53 -27 -53 -16 0 -31 34 -21 50 7 12 42 13
48 3z m321 -9 c8 -21 -1 -34 -25 -34 -14 0 -19 7 -19 25 0 29 34 36 44 9z
m-806 -170 c2 -14 -3 -23 -16 -26 -29 -8 -45 6 -37 31 9 29 49 25 53 -5z m320
-1 c3 -19 -1 -23 -22 -23 -29 0 -39 11 -30 35 10 24 48 15 52 -12z m322 12
c15 -18 5 -32 -25 -37 -23 -4 -34 30 -13 43 18 12 24 11 38 -6z m330 -15 c0
-13 -7 -20 -19 -20 -22 0 -35 15 -26 30 12 19 45 11 45 -10z m-1142 -163 c3
-23 0 -27 -22 -27 -21 0 -26 5 -26 23 0 13 3 27 7 31 15 14 38 0 41 -27z m330
0 c3 -22 -1 -27 -17 -27 -29 0 -47 36 -24 49 26 15 38 8 41 -22z m326 18 c8
-23 -4 -45 -25 -45 -11 0 -22 7 -25 15 -9 23 3 45 25 45 10 0 21 -7 25 -15z
m316 0 c16 -20 6 -45 -19 -45 -23 0 -32 18 -19 43 11 21 22 22 38 2z m-1132
-162 c13 -26 4 -43 -24 -43 -18 0 -24 5 -24 23 0 40 32 52 48 20z m327 -13 c0
-16 -6 -26 -19 -28 -25 -5 -39 12 -31 38 10 31 50 24 50 -10z m313 6 c6 -27
-6 -46 -23 -40 -15 6 -21 45 -8 58 11 10 28 1 31 -18z m336 8 c7 -19 -10 -44
-31 -44 -19 0 -28 27 -13 45 16 20 36 19 44 -1z m-1139 -179 c0 -13 -8 -21
-22 -23 -17 -3 -23 2 -23 16 0 10 3 22 7 26 13 13 38 1 38 -19z m323 -2 c3
-20 -1 -23 -27 -23 -23 0 -31 5 -31 18 0 25 10 33 35 30 12 -2 21 -12 23 -25z
m321 18 c19 -12 6 -41 -18 -41 -23 0 -35 15 -27 35 6 17 24 19 45 6z m336 -16
c0 -14 -8 -21 -27 -23 -22 -3 -28 1 -28 16 0 25 10 33 35 30 12 -2 20 -10 20
-23z m-491 -148 c13 -21 -15 -53 -38 -44 -19 8 -21 38 -4 55 15 15 28 11 42
-11z m-326 -13 c3 -22 -20 -35 -45 -27 -14 5 -17 35 -6 47 14 14 48 1 51 -20z
m642 1 c0 -18 -5 -25 -19 -25 -11 0 -23 5 -26 10 -11 18 3 40 25 40 15 0 20
-7 20 -25z m-805 -165 c0 -20 -6 -26 -27 -28 -24 -3 -28 0 -28 21 0 30 9 39
35 35 14 -2 20 -10 20 -28z m323 3 c3 -19 -1 -23 -22 -23 -28 0 -41 14 -32 36
9 24 50 13 54 -13z m330 1 c2 -15 -3 -23 -17 -27 -24 -6 -46 16 -37 39 9 23
50 14 54 -12z m-820 -167 c3 -22 -1 -27 -17 -27 -21 0 -26 15 -15 45 9 23 29
13 32 -18z m330 16 c13 -26 4 -43 -24 -43 -18 0 -24 5 -24 23 0 40 32 52 48
20z m327 -13 c0 -18 -6 -26 -23 -28 -24 -4 -38 18 -28 44 3 9 15 14 28 12 17
-2 23 -10 23 -28z m3530 -110 c66 -6 167 -18 224 -27 l103 -17 -27 -24 c-19
-16 -35 -22 -54 -18 -146 28 -317 41 -566 41 l-270 0 -145 -39 c-352 -93 -740
-240 -1059 -401 -225 -113 -309 -164 -476 -290 -120 -91 -199 -167 -299 -290
-117 -142 -476 -641 -639 -887 -86 -131 -92 -137 -109 -121 -10 9 -18 22 -18
28 0 17 422 625 593 855 89 120 260 314 336 382 183 163 500 352 826 491 349
150 899 321 1055 330 91 4 408 -3 525 -13z m-4031 -26 c24 -9 21 -54 -4 -54
-11 0 -23 -1 -27 -2 -13 -5 -15 32 -3 47 14 17 13 17 34 9z m334 -27 c3 -23 0
-27 -22 -27 -21 0 -26 5 -26 23 0 13 3 27 7 31 15 14 38 0 41 -27z m4232 -7
c0 -22 -24 -32 -39 -17 -14 14 -14 30 1 45 15 15 38 -2 38 -28z m328 2 c-4
-22 -46 -28 -54 -8 -4 9 -1 23 6 31 16 19 53 1 48 -23z m1697 -52 c18 -8 17
-9 -7 -9 -15 -1 -30 4 -33 9 -7 12 12 12 40 0z m-190 -10 c3 -5 -1 -10 -9 -10
-9 0 -16 5 -16 10 0 6 4 10 9 10 6 0 13 -4 16 -10z m-6551 -83 c13 -21 -15
-53 -38 -44 -19 8 -21 38 -4 55 15 15 28 11 42 -11z m331 -12 c0 -13 -8 -21
-24 -23 -28 -4 -46 11 -37 33 9 25 61 16 61 -10z m4209 19 c28 -11 18 -34 -14
-34 -30 0 -43 23 -17 33 6 3 13 6 14 6 1 1 8 -2 17 -5z m333 -5 c16 -16 5 -39
-17 -39 -23 0 -34 16 -26 35 6 18 28 19 43 4z m328 -14 c0 -13 -8 -21 -22 -23
-17 -3 -23 2 -23 16 0 10 3 22 7 26 13 13 38 1 38 -19z m1115 -146 c0 -5 -4
-9 -10 -9 -5 0 -10 7 -10 16 0 8 5 12 10 9 6 -3 10 -10 10 -16z m-6152 -16 c3
-22 -28 -40 -48 -28 -12 7 -13 38 -3 49 15 14 48 1 51 -21z m4546 4 c12 -19 3
-32 -19 -24 -17 7 -21 51 -3 45 6 -2 16 -12 22 -21z m326 8 c10 -12 10 -18 0
-30 -25 -30 -61 -7 -46 30 3 8 12 15 19 15 8 0 20 -7 27 -15z m319 -32 c-6 -7
-16 -13 -21 -13 -16 0 -21 30 -7 46 12 14 14 14 26 -2 9 -13 10 -21 2 -31z
m243 -60 c22 -20 23 -33 3 -33 -12 0 -35 28 -35 44 0 11 13 6 32 -11z m-5598
-76 c16 -25 -16 -56 -38 -37 -19 15 -20 32 -4 48 15 15 28 11 42 -11z m4872
-13 c-5 -13 -10 -14 -18 -6 -6 6 -8 18 -4 28 5 13 10 14 18 6 6 -6 8 -18 4
-28z m332 2 c-4 -25 -36 -34 -44 -12 -10 26 3 45 26 39 14 -4 20 -12 18 -27z
m320 0 c-4 -25 -36 -34 -44 -12 -8 21 13 46 32 39 8 -3 14 -15 12 -27z m1532
-36 c0 -5 -4 -10 -10 -10 -5 0 -10 5 -10 10 0 6 5 10 10 10 6 0 10 -4 10 -10z
m-7215 -125 c0 -14 -8 -21 -27 -23 -24 -3 -28 0 -28 23 0 23 4 26 28 23 19 -2
27 -9 27 -23z m5843 13 c19 -19 14 -28 -13 -28 -24 0 -34 18 -18 33 9 10 17 9
31 -5z m1312 2 c0 -5 -4 -10 -10 -10 -5 0 -10 5 -10 10 0 6 5 10 10 10 6 0 10
-4 10 -10z m-1970 -4 c0 -3 -4 -8 -10 -11 -5 -3 -10 -1 -10 4 0 6 5 11 10 11
6 0 10 -2 10 -4z m320 -11 c0 -8 -2 -15 -4 -15 -2 0 -6 7 -10 15 -3 8 -1 15 4
15 6 0 10 -7 10 -15z m-973 -1 c-3 -3 -12 -4 -19 -1 -8 3 -5 6 6 6 11 1 17 -2
13 -5z m333 2 c0 -11 -19 -15 -25 -6 -3 5 1 10 9 10 9 0 16 -2 16 -4z m810
-167 c0 -20 -15 -26 -25 -9 -9 15 3 43 15 35 5 -3 10 -15 10 -26z m-320 2 c0
-11 -5 -23 -11 -27 -15 -9 -33 12 -26 30 9 23 37 20 37 -3z m1745 10 c3 -5 1
-12 -5 -16 -5 -3 -10 1 -10 9 0 18 6 21 15 7z m-4507 -164 c4 -21 -25 -34 -40
-19 -8 8 -8 16 2 27 16 19 34 15 38 -8z m3261 9 c10 -11 7 -17 -10 -29 -12 -9
-28 -13 -35 -10 -14 5 -19 35 -7 46 11 12 40 8 52 -7z m-349 -12 c0 -8 -4 -12
-10 -9 -5 3 -10 10 -10 16 0 5 5 9 10 9 6 0 10 -7 10 -16z m498 -146 c20 -20
14 -40 -10 -36 -15 2 -24 11 -26 26 -4 24 16 30 36 10z m-3573 -19 c0 -7 -8
-15 -17 -17 -18 -3 -25 18 -11 32 10 10 28 1 28 -15z m325 1 c0 -15 -7 -20
-25 -20 -24 0 -34 18 -18 33 15 15 43 7 43 -13z m-167 -170 c-7 -28 -33 -25
-33 3 0 13 3 27 7 30 11 12 31 -13 26 -33z m3565 1 c3 -8 -1 -12 -9 -9 -7 2
-15 10 -17 17 -3 8 1 12 9 9 7 -2 15 -10 17 -17z m-3728 -150 c0 -19 -23 -35
-34 -24 -14 15 -5 43 14 43 13 0 20 -7 20 -19z m2604 3 c4 -9 4 -19 2 -21 -8
-8 -26 8 -26 23 0 19 16 18 24 -2z m-2274 -9 c0 -9 -9 -15 -25 -15 -24 0 -32
10 -18 23 12 13 43 7 43 -8z m-162 -163 c3 -18 -2 -22 -22 -22 -28 0 -34 18
-14 38 17 17 32 10 36 -16z m-336 -14 c-15 -15 -26 -4 -18 18 5 13 9 15 18 6
9 -9 9 -15 0 -24z m2933 22 c3 -6 -1 -13 -10 -16 -19 -8 -30 0 -20 15 8 14 22
14 30 1z m315 -10 c0 -5 -5 -10 -11 -10 -5 0 -7 5 -4 10 3 6 8 10 11 10 2 0 4
-4 4 -10z m-3085 -160 c0 -27 -22 -39 -31 -16 -8 22 3 49 19 43 6 -2 12 -14
12 -27z m333 -3 c2 -12 -3 -17 -18 -17 -20 0 -21 2 -9 17 10 11 10 14 2 9 -8
-4 -13 -2 -13 4 0 18 34 7 38 -13z m620 -127 c1 -16 -2 -30 -8 -30 -11 0 -14
43 -3 53 9 10 8 10 11 -23z m-778 -31 c0 -14 -7 -19 -25 -19 -26 0 -33 18 -14
37 16 16 39 5 39 -18z m-330 1 c0 -11 -6 -20 -14 -20 -18 0 -29 16 -21 30 11
18 35 11 35 -10z m1135 -145 c27 -199 37 -259 56 -338 10 -43 16 -84 13 -91
-3 -7 -20 -19 -39 -28 -20 -9 -32 -11 -28 -4 3 6 0 5 -8 -1 -15 -15 -33 -17
-24 -4 3 5 1 12 -4 16 -6 3 -8 -6 -5 -21 4 -24 3 -26 -10 -14 -9 7 -14 16 -11
20 3 5 1 11 -4 15 -10 6 -7 -27 4 -45 4 -6 -1 -7 -11 -3 -13 5 -16 3 -11 -10
6 -15 -2 -21 -23 -19 -3 0 -7 -9 -7 -21 -1 -12 -15 -33 -30 -46 -38 -33 -39
-19 -13 105 12 55 32 163 45 242 14 79 27 147 29 151 3 4 10 50 17 102 11 92
24 128 40 112 5 -5 15 -58 24 -118z m1069 35 c3 0 3 8 0 18 -3 9 5 -1 17 -23
12 -22 31 -51 43 -64 11 -13 16 -22 11 -18 -6 3 -11 -3 -11 -13 0 -14 4 -16
13 -9 9 8 14 4 19 -18 4 -15 15 -39 24 -53 43 -62 220 -446 225 -488 l3 -25
-19 24 c-10 13 -19 30 -19 37 0 6 -7 12 -16 12 -14 0 -15 2 -3 17 12 14 12 16
0 8 -11 -6 -13 -4 -7 10 6 16 4 16 -11 4 -15 -12 -16 -12 -10 3 4 12 2 15 -8
12 -9 -4 -19 4 -26 20 -7 14 -17 22 -23 19 -6 -4 -5 1 3 10 7 9 10 18 5 18
-31 4 -40 3 -52 -5 -9 -6 -11 -4 -6 7 7 20 -35 16 -71 -7 -14 -9 -25 -14 -25
-11 0 3 -9 1 -20 -5 -11 -6 -20 -17 -20 -25 0 -8 -4 -15 -10 -15 -5 0 -10 -7
-10 -17 0 -9 -3 -13 -7 -10 -8 8 -35 -42 -28 -53 3 -5 -6 -7 -20 -6 -13 2 -22
-1 -19 -6 3 -5 0 -15 -6 -23 -7 -8 -10 -24 -7 -36 3 -12 3 -18 0 -15 -6 6 -28
-22 -51 -63 -8 -13 -9 -20 -3 -17 7 4 8 1 5 -8 -3 -9 -10 -13 -15 -10 -5 3 -6
-1 -3 -9 3 -8 -2 -21 -10 -30 -18 -17 -22 -42 -6 -32 6 4 7 -1 3 -12 -14 -39
7 -3 66 111 33 65 58 124 54 130 -3 6 -3 8 1 4 5 -4 30 20 57 52 27 32 64 71
83 85 l35 27 29 -20 c26 -19 198 -207 226 -248 32 -47 166 -335 166 -358 0 -2
-17 0 -37 5 -88 20 -212 5 -293 -36 -48 -24 -180 -125 -180 -137 0 -12 -2 -12
139 37 129 46 262 58 352 32 60 -18 60 -18 104 -132 21 -56 86 -200 121 -270
14 -30 14 -30 9 20 -3 28 -9 76 -14 108 -4 33 -4 57 1 57 5 0 22 -30 39 -67
16 -38 39 -86 50 -107 12 -21 29 -66 39 -100 10 -34 31 -90 46 -126 25 -58 28
-77 28 -175 0 -80 -6 -129 -21 -180 -11 -38 -46 -162 -77 -275 -60 -212 -92
-289 -156 -374 -117 -157 -341 -318 -542 -390 -26 -10 -63 -28 -83 -42 -45
-30 -51 -30 -136 1 -208 75 -539 130 -749 124 -56 -2 -103 2 -115 8 -40 22
-185 181 -205 224 -11 24 -20 61 -20 82 0 76 56 157 110 157 32 0 109 -56 129
-94 8 -14 19 -26 26 -26 21 0 105 59 105 74 0 8 4 17 10 21 5 3 74 -15 152
-40 79 -26 179 -58 223 -72 150 -48 180 -74 158 -139 -13 -40 -93 -128 -133
-148 -43 -21 -75 -44 -69 -50 2 -2 32 9 67 26 45 21 74 45 107 84 52 64 64
110 44 169 l-14 40 -125 42 c-148 50 -284 89 -359 103 -54 10 -55 10 -90 -23
-69 -64 -63 -63 -122 -2 -68 70 -109 81 -168 42 -72 -48 -98 -143 -65 -240 18
-52 112 -161 181 -208 24 -17 42 -33 39 -36 -3 -3 -76 -16 -163 -28 l-158 -23
-125 35 c-69 19 -139 43 -156 54 -106 65 -476 591 -637 904 -60 118 -174 568
-178 705 -1 38 8 62 65 160 67 116 76 143 54 156 -8 5 -4 11 14 18 14 6 58 47
98 91 40 44 76 81 81 83 5 2 16 -13 26 -32 l17 -36 -42 -58 c-118 -160 -142
-211 -142 -299 l0 -55 35 6 c29 6 39 3 61 -19 18 -18 23 -31 19 -48 -8 -27
-33 -47 -57 -47 -10 0 -18 -3 -18 -6 0 -4 26 -56 58 -117 75 -146 117 -191
197 -207 81 -17 189 -9 242 18 92 48 169 145 144 184 -19 30 -13 53 18 65 26
9 30 17 41 84 16 91 9 198 -20 309 -19 76 -65 196 -80 210 -3 3 -6 12 -8 20
-6 28 -23 38 -87 55 -101 28 -197 8 -298 -62 -45 -31 -55 -25 -31 17 13 21 42
42 99 69 103 49 127 56 264 81 174 31 255 24 248 -19 -2 -11 -6 -24 -10 -27
-4 -4 -7 -13 -7 -21 0 -7 15 3 33 23 l32 35 34 -25 c45 -33 152 -137 189 -184
38 -47 47 -39 20 18 -29 64 -58 160 -47 160 4 0 24 -14 43 -30 19 -17 37 -26
40 -21 9 15 -99 98 -178 138 -39 19 -72 37 -74 38 -7 6 20 46 61 93 23 26 57
66 75 89 31 39 134 103 164 103 14 0 54 -123 145 -445 37 -133 105 -314 111
-296 2 7 -4 44 -13 82 -25 99 -17 222 19 306 27 65 32 88 17 79 -5 -3 -12 -22
-15 -41 -4 -19 -12 -35 -18 -35 -7 0 -9 20 -4 61 3 34 6 73 6 87 0 17 3 23 10
16 5 -5 73 -136 149 -289 125 -249 187 -360 322 -570 36 -56 39 -58 39 -30 0
17 -7 75 -15 130 -22 152 -20 298 6 381 12 38 23 74 24 79 11 41 18 54 26 49
5 -3 5 6 0 19 -6 16 -3 59 9 133 11 60 20 130 20 155 0 25 4 70 9 100 12 70
30 294 36 434 2 61 4 113 5 118 0 12 30 8 31 -5 0 -7 3 -22 6 -33 3 -11 7 -41
8 -68 2 -55 11 -69 29 -44 7 9 18 17 24 17 18 0 20 24 3 40 -10 9 -17 34 -18
65 -1 38 1 45 8 28 4 -13 11 -23 13 -23z m-3474 -11 c16 -37 4 -53 -34 -43
-31 7 -30 7 -11 44 20 38 29 38 45 -1z m1110 -44 c0 -19 -20 -29 -32 -17 -15
15 -2 43 17 36 8 -3 15 -12 15 -19z m317 14 c14 -14 6 -39 -12 -39 -18 0 -28
17 -21 35 6 18 18 19 33 4z m327 -8 c3 -5 -1 -14 -8 -20 -16 -13 -32 2 -21 19
8 12 22 13 29 1z m401 -360 c-8 -91 -20 -168 -26 -171 -6 -5 -7 -15 0 -32 5
-14 7 -53 4 -87 l-6 -63 -36 6 c-20 3 -80 8 -134 12 -54 4 -100 10 -102 15 -4
6 115 82 225 142 42 23 31 35 -12 14 -120 -55 -138 -60 -138 -40 0 12 -3 13
-15 3 -8 -7 -13 -16 -10 -20 3 -5 1 -11 -5 -15 -6 -4 -8 -10 -5 -15 3 -4 -5
-6 -17 -4 -13 2 -18 2 -11 -1 22 -11 -60 -75 -97 -75 -5 0 14 34 43 76 29 42
57 84 62 93 6 9 19 30 31 46 12 17 23 35 25 40 18 47 113 204 120 200 5 -4 6
2 2 11 -4 12 -3 15 6 10 8 -5 11 -3 10 5 -1 8 20 59 47 115 l49 101 3 -101 c2
-56 -4 -175 -13 -265z m2525 349 c0 -5 -7 -10 -15 -10 -8 0 -15 5 -15 10 0 6
7 10 15 10 8 0 15 -4 15 -10z m-4719 -16 c5 -3 -6 -27 -25 -52 -18 -26 -59
-98 -90 -160 l-57 -113 -32 27 c-124 103 -157 145 -157 195 0 45 21 71 83 100
37 18 56 19 156 14 62 -3 117 -8 122 -11z m197 -45 c17 -6 32 -16 32 -23 0 -7
-32 -61 -72 -122 -39 -60 -86 -141 -104 -181 l-33 -72 -73 40 c-40 22 -79 46
-86 53 -12 11 -2 37 57 153 39 77 82 152 95 166 l24 26 63 -15 c35 -8 79 -19
97 -25z m87 -41 c14 -6 25 -14 25 -18 0 -4 -22 -40 -49 -81 -26 -41 -56 -90
-66 -109 -10 -19 -36 -63 -58 -98 -34 -51 -45 -61 -62 -56 -29 9 -29 9 2 56
16 24 41 63 55 88 34 58 113 161 104 135 -4 -11 -4 -16 1 -12 10 11 31 97 22
91 -4 -2 -10 0 -14 6 -8 13 8 13 40 -2z m1029 -44 c7 -19 -1 -34 -19 -34 -8 0
-16 4 -19 9 -9 14 4 41 19 41 7 0 16 -7 19 -16z m324 -7 c4 -20 -25 -34 -39
-20 -14 14 1 45 20 41 9 -2 17 -11 19 -21z m-1293 -7 c0 -8 -8 -16 -17 -18
-13 -2 -18 3 -18 18 0 15 5 20 18 18 9 -2 17 -10 17 -18z m4225 4 c0 -8 -4
-12 -10 -9 -5 3 -10 10 -10 16 0 5 5 9 10 9 6 0 10 -7 10 -16z m320 -5 c0 -25
-33 -22 -38 4 -2 12 3 17 17 17 15 0 21 -6 21 -21z m-3740 -144 c15 -18 5 -35
-21 -35 -12 0 -19 7 -19 18 0 33 20 42 40 17z m320 0 c15 -18 5 -35 -21 -35
-12 0 -19 7 -19 18 0 33 20 42 40 17z m3250 -9 c0 -16 -18 -31 -27 -22 -8 8 5
36 17 36 5 0 10 -6 10 -14z m-4886 -59 c17 -12 14 -19 -38 -92 -31 -43 -110
-157 -174 -253 -131 -195 -129 -193 -193 -282 -69 -96 -218 -348 -288 -486
-68 -134 -122 -289 -146 -419 -9 -46 -20 -181 -24 -299 -5 -119 -12 -220 -15
-224 -4 -4 -16 4 -27 17 -37 45 -21 429 26 612 27 106 43 148 115 296 110 228
231 424 478 771 18 26 49 74 69 107 44 75 182 265 192 265 4 0 15 -6 25 -13z
m1474 -110 c3 -22 -1 -27 -17 -27 -21 0 -26 15 -15 45 9 23 29 13 32 -18z
m-987 -20 c-8 -8 -11 -5 -11 9 0 27 14 41 18 19 2 -9 -1 -22 -7 -28z m1315 27
c-3 -9 -6 -20 -6 -25 0 -5 -7 -9 -15 -9 -15 0 -21 31 -8 43 13 14 35 7 29 -9z
m-1636 -19 c11 -13 10 -14 -4 -9 -9 3 -16 10 -16 15 0 13 6 11 20 -6z m3931
-134 c10 -23 16 -41 14 -41 -4 0 -55 90 -55 98 0 14 24 -20 41 -57z m-2781
-16 c0 -18 -5 -25 -20 -25 -15 0 -20 7 -20 25 0 18 5 25 20 25 15 0 20 -7 20
-25z m3905 0 c0 -13 -8 -21 -22 -23 -19 -3 -23 1 -23 23 0 22 4 26 23 23 14
-2 22 -10 22 -23z m-4885 8 c0 -17 -19 -35 -29 -29 -18 12 -12 36 9 36 11 0
20 -3 20 -7z m1298 -10 c-2 -10 -10 -18 -18 -18 -8 0 -16 8 -18 18 -2 12 3 17
18 17 15 0 20 -5 18 -17z m142 -18 c0 -3 -7 -22 -17 -43 -9 -20 -17 -40 -17
-44 -1 -10 -46 -41 -46 -32 0 14 63 124 71 124 5 0 9 -2 9 -5z m-295 -140 c0
-22 -31 -33 -48 -16 -7 7 -6 15 3 26 17 21 45 15 45 -10z m3904 6 c8 -14 7
-22 -4 -31 -19 -16 -45 -6 -45 18 0 36 33 45 49 13z m-5201 -8 c2 -8 -6 -13
-22 -13 -25 0 -33 10 -19 24 10 10 36 3 41 -11z m4872 3 c0 -3 -4 -8 -10 -11
-5 -3 -10 -1 -10 4 0 6 5 11 10 11 6 0 10 -2 10 -4z m-870 -50 c0 -12 -5 -7
-19 24 -11 24 -11 24 3 6 9 -11 16 -24 16 -30z m-2872 -119 c3 -21 -1 -27 -16
-27 -22 0 -34 22 -25 45 9 25 38 13 41 -18z m3907 3 c0 -16 -6 -26 -19 -28
-25 -5 -37 9 -29 36 8 33 48 26 48 -8z m-5208 5 c7 -20 -2 -29 -21 -22 -9 4
-13 13 -10 22 8 19 23 19 31 0z m321 -8 c2 -10 -3 -17 -12 -17 -18 0 -29 16
-21 31 9 14 29 6 33 -14z m5052 -150 c0 -28 -17 -47 -36 -40 -14 5 -19 44 -7
56 16 17 43 6 43 -16z m-5210 -1 c0 -9 -9 -14 -20 -13 -22 1 -27 13 -7 20 21
9 27 7 27 -7z m-325 -16 c-3 -5 -10 -10 -16 -10 -5 0 -9 5 -9 10 0 6 7 10 16
10 8 0 12 -4 9 -10z m484 -143 c13 -16 5 -27 -21 -27 -18 0 -25 20 -11 33 10
10 19 8 32 -6z m979 5 c15 -10 5 -42 -13 -42 -18 0 -28 17 -21 35 6 17 15 18
34 7z m4235 -6 c7 -19 -1 -26 -30 -26 -22 0 -31 19 -16 33 11 12 41 7 46 -7z
m-5525 -8 c-3 -7 -15 -13 -28 -13 -13 0 -25 6 -27 13 -3 8 6 12 27 12 21 0 30
-4 28 -12z m1612 2 c0 -5 -9 -10 -20 -10 -11 0 -20 5 -20 10 0 6 9 10 20 10
11 0 20 -4 20 -10z m2959 -102 c50 -92 131 -297 131 -334 0 -52 -68 -263 -69
-215 -1 47 -21 162 -33 183 -4 10 -11 37 -14 60 -3 24 -10 61 -15 83 -5 22 -9
69 -9 106 0 36 -4 69 -9 75 -5 5 -12 29 -16 54 -8 50 1 47 34 -12z m-4739 -52
c0 -7 -7 -19 -15 -26 -19 -16 -41 1 -32 24 8 20 47 21 47 2z m330 -7 c0 -16
-31 -22 -43 -10 -9 9 -9 14 2 20 16 10 41 4 41 -10z m5515 -5 c0 -10 -8 -20
-17 -22 -18 -3 -26 27 -11 42 12 11 28 0 28 -20z m-5230 6 c3 -5 1 -10 -4 -10
-6 0 -11 5 -11 10 0 6 2 10 4 10 3 0 8 -4 11 -10z m1484 -44 c6 -7 9 -21 5
-30 -3 -9 -1 -23 5 -30 16 -19 -2 -29 -38 -21 -37 8 -50 48 -25 76 20 22 37
24 53 5z m-2261 -124 c3 -16 -2 -22 -16 -22 -25 0 -31 7 -25 31 7 27 37 20 41
-9z m328 -11 c-4 -6 -16 -11 -27 -11 -21 0 -27 35 -6 43 16 6 41 -18 33 -32z
m322 13 c2 -13 -4 -24 -13 -28 -24 -9 -35 1 -35 30 0 21 4 25 23 22 13 -2 23
-11 25 -24z m971 7 c11 -20 5 -31 -16 -31 -7 0 -13 11 -13 25 0 29 15 33 29 6z
m-1469 -156 c15 -18 6 -45 -14 -45 -17 0 -28 24 -20 45 8 19 18 19 34 0z m658
-12 c2 -12 -4 -23 -13 -27 -32 -12 -48 17 -23 42 17 17 32 10 36 -15z m-322 6
c10 -17 -23 -46 -37 -32 -7 7 -9 19 -6 27 7 18 33 21 43 5z m5532 -12 c2 -12
-3 -17 -17 -17 -15 0 -21 6 -21 21 0 25 33 22 38 -4z m-6019 -151 c9 -10 8
-16 -4 -26 -17 -14 -45 -7 -45 13 0 29 30 37 49 13z m327 3 c3 -6 -1 -18 -9
-27 -13 -12 -19 -13 -31 -3 -8 7 -12 19 -9 27 6 17 39 19 49 3z m320 0 c3 -6
0 -17 -7 -25 -18 -17 -44 -2 -36 20 7 18 33 21 43 5z m304 -20 c0 -5 -4 -9
-10 -9 -5 0 -10 7 -10 16 0 8 5 12 10 9 6 -3 10 -10 10 -16z m-796 -141 c8
-14 7 -22 -7 -35 -15 -16 -19 -16 -27 -3 -5 8 -10 25 -10 38 0 28 26 27 44 0z
m334 -9 c4 -19 -27 -34 -41 -20 -14 14 0 43 20 39 10 -2 19 -10 21 -19z m320
0 c4 -19 -27 -34 -41 -20 -14 14 0 43 20 39 10 -2 19 -10 21 -19z m-814 -142
c28 -21 17 -52 -19 -52 -33 0 -45 25 -25 50 15 18 21 19 44 2z m320 -38 c-22
-25 -44 -24 -44 1 0 25 30 42 48 28 10 -9 9 -15 -4 -29z m332 2 c-4 -6 -16
-11 -27 -11 -21 0 -27 35 -6 43 16 6 41 -18 33 -32z m332 11 c4 -28 -24 -40
-45 -19 -21 21 -9 49 19 45 15 -2 24 -11 26 -26z m4845 -68 c26 -49 81 -134
121 -189 41 -55 73 -102 70 -104 -6 -7 -110 78 -162 133 -54 57 -152 200 -152
221 0 13 46 35 65 31 6 -1 31 -42 58 -92z m-5352 -74 c28 -15 24 -40 -6 -40
-20 0 -25 5 -25 25 0 28 3 29 31 15z m344 -9 c7 -12 -24 -43 -39 -38 -6 2 -12
13 -14 25 -3 18 2 22 22 22 14 0 27 -4 31 -9z m-167 -175 c-2 -13 -10 -21 -23
-21 -23 0 -33 34 -14 45 20 13 40 -1 37 -24z m3927 -535 c50 -56 51 -69 1 -21
-50 48 -87 100 -51 70 11 -8 33 -30 50 -49z m-4577 -114 c3 -23 0 -27 -23 -27
-30 0 -43 24 -25 46 19 22 45 13 48 -19z m88 -1 c15 -16 18 -26 6 -26 -4 0
-13 9 -20 20 -14 23 -7 26 14 6z m-262 -132 c34 -13 11 -66 -25 -57 -22 6 -27
48 -6 56 6 3 13 6 14 6 1 1 8 -2 17 -5z m314 -26 c16 -16 15 -28 -2 -28 -17 0
-38 24 -29 33 9 10 17 9 31 -5z m-468 -143 c19 -23 8 -50 -20 -50 -19 0 -26 6
-28 24 -5 35 26 53 48 26z m333 -7 c13 -20 -6 -48 -34 -48 -22 0 -35 36 -18
56 15 18 38 15 52 -8z m-1303 -13 c0 -20 -5 -25 -24 -25 -14 0 -27 4 -30 9
-11 18 6 41 30 41 19 0 24 -5 24 -25z m325 15 c9 -14 -13 -50 -31 -50 -17 0
-28 24 -20 45 6 17 42 20 51 5z m325 -7 c0 -28 -16 -47 -34 -40 -9 4 -16 18
-16 32 0 20 5 25 25 25 17 0 25 -5 25 -17z m114 -25 c3 -13 6 -35 6 -49 0 -22
11 -71 53 -234 2 -5 9 -20 15 -33 7 -12 10 -28 6 -35 -4 -6 -4 -9 1 -5 11 11
38 -29 29 -44 -4 -6 -3 -8 3 -5 6 4 19 -6 29 -21 35 -55 141 -166 218 -230 44
-36 76 -60 72 -54 -4 7 8 3 26 -8 45 -26 111 -97 98 -105 -6 -3 -13 1 -16 10
-4 10 -13 13 -24 10 -15 -5 -17 -1 -13 17 4 18 2 20 -5 9 -9 -12 -13 -12 -26
-2 -9 7 -14 16 -12 20 3 4 -5 13 -17 21 -19 12 -21 11 -10 -2 11 -13 8 -15
-22 -13 -47 3 -78 31 -73 67 4 22 2 25 -9 16 -11 -8 -20 -5 -41 15 -21 21 -38
27 -70 27 -31 0 -42 4 -42 15 0 8 -5 15 -11 15 -6 0 -9 6 -6 14 4 9 -3 16 -19
19 -19 3 -29 -2 -41 -20 -9 -13 -13 -26 -9 -30 3 -3 6 -1 6 5 0 7 14 12 30 12
20 0 30 -5 30 -15 0 -8 -7 -15 -15 -15 -8 0 -15 -6 -16 -12 0 -10 -2 -10 -6 0
-2 6 -9 12 -14 12 -6 0 -8 -3 -5 -8 2 -4 -2 -16 -11 -27 -13 -19 -14 -18 -8
10 5 22 4 26 -4 15 -8 -12 -13 -8 -26 22 -18 46 -19 56 -1 90 14 26 14 27 -17
30 -24 2 -33 8 -35 26 -3 18 1 22 22 22 19 0 26 -5 26 -20 0 -22 17 -26 40 -9
12 8 10 10 -10 5 -23 -5 -24 -4 -7 9 18 13 18 13 -1 19 -20 7 -37 59 -25 79 3
5 1 7 -4 4 -7 -4 -14 8 -18 30 -10 53 -27 82 -84 137 -28 27 -51 52 -51 55 0
3 14 29 31 56 17 28 38 62 47 77 21 34 28 35 36 6z m1395 -121 c-13 -13 -26
-21 -29 -19 -5 4 38 42 48 42 3 0 -6 -10 -19 -23z m-2334 -23 c0 -22 -5 -29
-20 -29 -23 0 -32 30 -14 51 18 22 34 11 34 -22z m343 -2 c-2 -10 -15 -18 -31
-20 -23 -3 -27 0 -27 22 0 13 6 26 13 29 19 7 49 -13 45 -31z m960 29 c8 -4
12 -19 10 -32 -2 -18 -9 -24 -28 -24 -19 0 -26 6 -28 24 -3 20 11 41 28 41 3
0 11 -4 18 -9z m-643 -11 c11 -18 -6 -50 -26 -50 -22 0 -34 22 -25 45 6 17 42
20 51 5z m977 -7 c7 -27 -2 -43 -23 -43 -22 0 -34 22 -25 45 8 21 43 19 48 -2z
m3568 -18 c7 -9 10 -18 7 -21 -7 -8 -47 14 -47 26 0 15 26 12 40 -5z m-1152
-134 c2 -6 8 -11 13 -11 6 0 33 -17 62 -38 29 -21 133 -84 232 -141 99 -57
198 -116 220 -131 22 -15 87 -51 145 -79 118 -59 125 -64 115 -81 -6 -9 -10
-9 -16 1 -6 10 -9 10 -9 2 0 -8 -12 -5 -35 8 -19 12 -35 23 -35 26 0 2 5 1 12
-3 7 -4 8 -3 4 4 -4 6 -13 9 -21 6 -8 -3 -27 8 -44 25 -17 18 -31 27 -31 21 0
-7 -6 -10 -12 -7 -7 2 -12 9 -11 14 1 6 -16 18 -37 28 -22 10 -45 24 -51 32
-14 17 -32 17 -24 1 4 -7 0 -5 -8 5 -8 10 -19 17 -23 16 -11 -3 -84 28 -84 35
0 3 8 3 18 0 9 -3 1 4 -18 15 -41 23 -67 28 -30 5 45 -28 -9 -6 -126 51 -35
17 -61 28 -58 24 2 -4 -25 11 -60 34 -35 23 -62 46 -59 51 4 5 1 6 -6 2 -9 -6
-65 24 -81 44 -3 4 -20 15 -37 25 -23 14 -29 22 -20 27 17 12 110 3 115 -11z
m-3883 -21 c0 -18 -6 -26 -23 -28 -13 -2 -25 3 -28 12 -10 26 4 48 28 44 17
-2 23 -10 23 -28z m325 0 c0 -23 -4 -30 -20 -30 -11 0 -23 7 -26 15 -9 23 3
45 26 45 16 0 20 -7 20 -30z m328 -2 c3 -24 0 -28 -22 -28 -22 0 -26 4 -26 31
0 26 3 30 23 27 16 -2 23 -11 25 -30z m327 11 c10 -30 -18 -57 -39 -39 -16 13
-21 42 -9 53 14 14 42 6 48 -14z m325 6 c18 -21 5 -45 -24 -45 -30 0 -40 13
-31 40 7 24 37 26 55 5z m325 -15 c0 -16 -6 -26 -19 -28 -25 -5 -39 12 -31 38
10 31 50 24 50 -10z m3582 14 c7 -18 -9 -37 -36 -41 -26 -4 -35 12 -21 37 13
24 48 27 57 4z m-1097 -24 c16 -11 47 -41 68 -66 22 -24 57 -58 77 -74 57 -45
32 -36 -64 23 -47 30 -108 67 -136 82 -27 16 -61 37 -75 47 l-25 20 64 -6 c39
-4 74 -14 91 -26z m137 4 c31 -6 51 -44 29 -56 -9 -5 -16 -16 -16 -23 0 -24
-9 -18 -63 39 l-52 54 40 -5 c22 -2 50 -6 62 -9z m-2524 -50 c-5 -14 -7 -27
-12 -72 0 -8 -6 -10 -13 -6 -10 6 -10 5 -1 -7 13 -16 -1 -93 -26 -149 -10 -24
-11 -24 -10 10 2 78 -4 214 -8 195 -3 -11 -12 -28 -21 -38 -9 -11 -17 -42 -19
-80 -2 -34 -5 -68 -8 -74 -2 -7 2 -13 10 -13 8 0 15 -6 15 -12 0 -10 2 -10 8
-2 5 8 13 3 26 -14 15 -20 16 -24 4 -20 -10 4 -15 1 -14 -10 0 -9 -6 -17 -14
-17 -8 -1 -22 -4 -30 -7 -46 -18 -101 -30 -106 -25 -4 4 -1 13 6 22 11 13 10
14 -4 9 -9 -3 -16 -11 -16 -18 -1 -17 -38 -62 -46 -54 -4 4 -1 14 6 23 17 20
1 19 -22 -2 -24 -22 -23 -5 3 32 31 47 93 153 135 234 21 40 44 75 51 78 7 3
13 10 13 17 0 7 20 12 50 14 41 2 48 -1 43 -14z m2917 -28 c0 -2 -11 -1 -25 2
-14 2 -22 8 -19 13 4 8 44 -6 44 -15z m318 -26 c34 -7 80 -10 102 -7 22 3 38
1 34 -4 -3 -5 1 -6 9 -3 8 3 18 1 22 -5 3 -6 -1 -11 -10 -11 -20 0 -17 -52 3
-56 7 -1 8 0 2 3 -20 10 -9 19 25 20 25 1 38 -4 46 -18 8 -17 6 -19 -18 -19
-64 0 -280 -51 -338 -80 -33 -16 -51 -23 -40 -15 19 15 19 16 -5 13 -21 -3
-25 2 -31 37 -5 22 -8 56 -8 75 -1 28 -7 38 -31 52 -17 9 -30 23 -30 30 0 16
165 8 268 -12z m-5129 -34 c17 -20 3 -46 -25 -46 -18 0 -24 5 -24 23 0 38 26
50 49 23z m331 -1 c18 -21 5 -45 -25 -45 -20 0 -25 5 -25 23 0 39 26 50 50 22z
m325 -15 c0 -18 -6 -26 -23 -28 -27 -4 -40 22 -22 44 19 22 45 13 45 -16z
m653 -3 c3 -24 0 -27 -27 -27 -26 0 -31 4 -31 24 0 44 53 47 58 3z m322 14 c7
-15 6 -23 -5 -35 -20 -20 -45 -10 -45 18 0 40 32 50 50 17z m2855 -11 c-3 -6
5 -10 19 -10 28 0 50 -18 72 -62 22 -43 11 -45 -36 -8 -57 45 -87 90 -59 90 5
0 7 -4 4 -10z m835 0 c0 -5 -4 -10 -10 -10 -5 0 -10 5 -10 10 0 6 5 10 10 10
6 0 10 -4 10 -10z m220 -4 c0 -20 -21 -25 -45 -13 -19 10 -19 11 5 18 37 11
40 10 40 -5z m-5376 -141 c17 -18 12 -41 -12 -50 -22 -8 -45 18 -37 44 8 25
27 27 49 6z m330 -8 c9 -14 7 -21 -7 -32 -25 -18 -47 -9 -47 19 0 40 32 48 54
13z m325 6 c11 -21 -3 -53 -24 -53 -21 0 -35 31 -24 52 12 23 35 23 48 1z
m650 3 c16 -19 -4 -59 -26 -54 -26 5 -39 34 -24 52 17 20 35 20 50 2z m4218
-33 c-14 -14 -19 -15 -29 -4 -11 10 -9 15 6 27 27 20 47 0 23 -23z m-4697 -25
c0 -5 -4 -8 -10 -8 -5 0 -10 10 -10 23 0 18 2 19 10 7 5 -8 10 -18 10 -22z
m-1074 10 c4 -7 3 -8 -4 -4 -7 4 -12 2 -12 -4 0 -6 -5 -8 -11 -4 -8 4 -7 9 2
15 18 11 17 11 25 -3z m1299 -17 c-6 -5 -25 10 -25 20 0 5 6 4 14 -3 8 -7 12
-15 11 -17z m698 -35 c5 -32 6 -65 3 -72 -4 -11 -30 -14 -113 -13 -59 1 -121
4 -138 8 -30 7 -70 -12 -103 -49 -7 -8 -11 -10 -8 -3 4 6 0 14 -6 16 -8 4 -7
6 4 6 9 1 22 15 30 32 10 23 18 29 36 26 12 -2 22 0 22 5 0 5 7 17 16 26 15
15 16 14 10 -5 -7 -21 -5 -21 26 -12 18 6 47 14 63 18 42 11 66 25 95 55 37
40 54 30 63 -38z m-960 27 c-3 -10 -13 -27 -22 -37 -15 -18 -15 -19 2 -13 13
5 17 3 14 -5 -2 -7 -12 -13 -22 -13 -12 0 -22 -10 -26 -25 l-7 -25 -1 26 c-1
14 13 43 31 67 36 47 40 50 31 25z m4069 -10 c-6 -2 -10 -9 -6 -14 3 -5 -4 -9
-16 -9 -12 0 -18 -4 -15 -10 4 -6 -8 -10 -27 -11 -18 -1 -25 -3 -15 -6 20 -5
24 -57 5 -69 -8 -5 -9 1 -5 22 5 26 3 29 -18 29 -24 0 -43 -35 -30 -55 7 -12
3 -12 -19 -4 -9 3 -13 11 -9 17 4 6 1 7 -7 2 -25 -15 -4 12 37 49 26 23 47 35
55 30 7 -4 10 -4 6 1 -14 15 14 35 46 34 17 0 25 -3 18 -6z m58 -13 c13 -8 13
-10 -2 -10 -9 0 -20 5 -23 10 -8 13 5 13 25 0z m7 -26 c-3 -3 -12 -4 -19 -1
-8 3 -5 6 6 6 11 1 17 -2 13 -5z m176 -1 c-7 -2 -19 -2 -25 0 -7 3 -2 5 12 5
14 0 19 -2 13 -5z m-4346 -60 c-3 -10 -5 -4 -5 12 0 17 2 24 5 18 2 -7 2 -21
0 -30z m4939 6 c10 -17 -13 -36 -27 -22 -12 12 -4 33 11 33 5 0 12 -5 16 -11z
m-931 -8 c3 -5 1 -12 -5 -16 -5 -3 -10 1 -10 9 0 18 6 21 15 7z m-66 -35 c7
-8 8 -16 4 -19 -11 -7 -45 18 -36 26 10 11 19 8 32 -7z m77 -10 c3 -8 21 -22
41 -31 22 -11 32 -20 26 -26 -6 -6 -28 -1 -58 14 -28 15 -43 27 -36 31 6 4 9
12 6 17 -4 5 -1 9 5 9 6 0 13 -6 16 -14z m-3390 -153 c-5 -5 -36 86 -35 101 0
6 9 -13 20 -43 10 -30 17 -56 15 -58z m13 91 c1 11 3 17 6 14 3 -3 2 -20 -2
-38 -5 -29 -7 -31 -14 -15 -4 11 -8 29 -8 40 l0 20 9 -20 c8 -19 9 -19 9 -1z
m3598 -30 c-3 -3 -12 -4 -19 -1 -8 3 -5 6 6 6 11 1 17 -2 13 -5z m540 -20 c1
-5 -2 -16 -7 -24 -12 -20 -35 2 -26 25 6 17 27 16 33 -1z m313 -4 c0 -5 -2
-10 -4 -10 -3 0 -8 5 -11 10 -3 6 -1 10 4 10 6 0 11 -4 11 -10z m-794 -58
c-22 -3 -26 -6 -15 -12 10 -7 8 -9 -8 -8 -14 2 -19 7 -15 17 4 10 1 13 -11 8
-9 -3 -19 -1 -23 5 -4 6 -3 8 2 5 6 -3 16 -2 23 3 8 4 27 3 45 -3 l31 -12 -29
-3z m634 -97 c0 -8 -4 -15 -10 -15 -5 0 -10 7 -10 15 0 8 5 15 10 15 6 0 10
-7 10 -15z m320 -5 c-19 -13 -30 -13 -30 0 0 6 10 10 23 10 18 0 19 -2 7 -10z
m2564 -26 c3 -8 2 -12 -4 -9 -6 3 -10 10 -10 16 0 14 7 11 14 -7z m-2721 -130
c11 -11 -3 -24 -18 -18 -8 4 -12 10 -9 15 6 11 18 12 27 3z m327 -2 c0 -14
-11 -21 -26 -15 -8 3 -11 9 -8 14 7 11 34 12 34 1z m314 -13 c-3 -5 -10 -7
-15 -3 -5 3 -7 10 -3 15 3 5 10 7 15 3 5 -3 7 -10 3 -15z m-1268 -47 c-8 -7
-25 8 -37 31 -11 21 -10 21 15 -2 14 -14 24 -26 22 -29z m1756 -124 c-17 -17
-24 -4 -16 28 7 28 7 28 17 6 7 -16 7 -26 -1 -34z m-1292 17 c0 -14 -4 -25
-10 -25 -5 0 -10 11 -10 25 0 14 5 25 10 25 6 0 10 -11 10 -25z m303 0 c-3 -9
-8 -14 -10 -11 -3 3 -2 9 2 15 9 16 15 13 8 -4z m328 -18 c-8 -8 -11 -7 -11 4
0 20 13 34 18 19 3 -7 -1 -17 -7 -23z m339 12 c0 -11 -4 -17 -10 -14 -5 3 -10
13 -10 21 0 8 5 14 10 14 6 0 10 -9 10 -21z"/>
<path d="M5627 5210 c-3 -11 -1 -23 4 -26 5 -3 9 6 9 20 0 31 -6 34 -13 6z"/>
<path d="M4446 4480 c21 -16 51 -39 67 -50 32 -26 36 -10 5 20 -22 21 -90 60
-104 60 -4 0 11 -13 32 -30z"/>
<path d="M5739 4178 c-32 -35 -59 -66 -59 -70 0 -8 24 0 85 30 22 10 56 22 74
26 76 14 111 27 111 41 0 16 -16 20 -98 30 l-54 6 -59 -63z m132 18 c21 4 20
2 -6 -10 -35 -17 -90 -22 -65 -6 8 5 11 10 5 10 -5 0 -3 4 5 10 8 5 19 5 25 0
6 -5 22 -7 36 -4z"/>
<path d="M5890 3921 c-75 -29 -182 -97 -227 -143 -51 -52 -88 -125 -101 -195
l-9 -53 27 0 c29 0 60 -27 60 -53 0 -29 -35 -55 -65 -49 l-28 5 7 -103 c3 -56
9 -113 12 -126 7 -26 68 -58 183 -95 67 -22 70 -22 107 -5 105 48 122 58 145
82 l24 25 -24 18 c-26 20 -25 48 2 65 14 9 21 7 31 -6 7 -10 16 -18 19 -18 3
0 17 21 32 46 22 37 30 70 42 173 29 247 5 365 -85 422 -53 33 -88 36 -152 10z
m21 -531 c25 -14 24 -46 -2 -60 -16 -9 -26 -8 -45 5 -37 24 -26 52 24 64 2 1
12 -4 23 -9z"/>
<path d="M5155 2080 c-3 -5 -1 -10 4 -10 6 0 11 5 11 10 0 6 -2 10 -4 10 -3 0
-8 -4 -11 -10z"/>
<path d="M1313 1056 c1 -11 9 -21 17 -23 10 -3 11 -2 4 4 -6 4 -14 15 -17 23
-5 11 -6 9 -4 -4z"/>
<path d="M1280 1021 c0 -6 4 -13 10 -16 6 -3 7 1 4 9 -7 18 -14 21 -14 7z"/>
<path d="M1342 1014 c-14 -16 -5 -18 17 -5 7 5 9 11 5 14 -5 3 -15 -1 -22 -9z"/>
<path d="M1374 985 c8 -8 18 -15 22 -15 3 0 1 7 -6 15 -7 8 -17 15 -22 15 -5
0 -3 -7 6 -15z"/>
<path d="M1410 950 c0 -5 5 -10 10 -10 6 0 10 5 10 10 0 6 -4 10 -10 10 -5 0
-10 -4 -10 -10z"/>
<path d="M1476 886 c3 -9 13 -16 22 -16 8 0 13 1 11 3 -2 1 -12 9 -22 16 -15
12 -17 12 -11 -3z"/>
<path d="M2011 1174 c0 -11 3 -14 6 -6 3 7 2 16 -1 19 -3 4 -6 -2 -5 -13z"/>
<path d="M1901 1044 c0 -11 3 -14 6 -6 3 7 2 16 -1 19 -3 4 -6 -2 -5 -13z"/>
<path d="M5350 1117 c0 -6 5 -19 10 -27 8 -13 11 -13 25 1 14 14 13 16 -10 27
-19 9 -25 9 -25 -1z"/>
<path d="M5240 1116 c0 -2 9 -6 20 -9 11 -3 20 -1 20 4 0 5 -9 9 -20 9 -11 0
-20 -2 -20 -4z"/>
<path d="M5348 1063 c7 -3 16 -2 19 1 4 3 -2 6 -13 5 -11 0 -14 -3 -6 -6z"/>
<path d="M2 760 c0 -14 2 -19 5 -12 2 6 2 18 0 25 -3 6 -5 1 -5 -13z"/>
<path d="M2921 740 c-18 -36 -19 -42 -6 -105 17 -79 20 -84 84 -119 35 -19 58
-25 75 -20 20 5 26 2 26 -9 0 -9 37 -40 83 -70 45 -30 111 -80 147 -112 36
-31 109 -89 162 -128 53 -39 95 -73 93 -75 -7 -7 -248 19 -320 34 -91 19 -365
31 -365 16 0 -6 26 -39 57 -73 l57 -61 56 5 c30 3 127 15 215 26 88 12 179 21
203 21 44 0 108 -26 131 -54 14 -17 121 -24 121 -8 0 13 -62 69 -127 114 -166
115 -422 334 -509 434 -28 33 -76 96 -107 141 l-56 82 -20 -39z"/>
<path d="M1 695 c0 -17 4 -36 11 -43 9 -9 9 -15 0 -24 -7 -7 -12 -43 -12 -92
l0 -79 62 -91 c114 -169 284 -366 315 -366 11 0 6 11 -18 39 -191 222 -229
274 -208 287 8 4 9 3 5 -4 -4 -7 -2 -12 5 -12 14 0 11 15 -42 164 -23 66 -56
140 -74 165 -18 25 -35 55 -38 66 -3 14 -5 11 -6 -10z"/>
</g>
</svg>
